<?xml version="1.0" encoding="iso-8859-1"?>
<!-- Uploaded to: SVG Repo, www.svgrepo.com, Generator: SVG Repo Mixer Tools -->
<svg fill="currentColor" height="800px" width="800px" version="1.1" id="Layer_1" xmlns="http://www.w3.org/2000/svg" xmlns:xlink="http://www.w3.org/1999/xlink" 
	 viewBox="0 0 512.001 512.001" xml:space="preserve">
<g>
	<g>
		<polygon points="229.714,183.953 0,413.695 83.522,497.228 313.241,267.481 		"/>
	</g>
</g>
<g>
	<g>
		<path d="M444.551,155.931l-13.753,6.755l-6.248-6.249l6.754-13.754l-92.791-92.801c-0.003-0.003-0.001-0.001-0.004-0.004
			c-60.263-60.265-159.251-24.997-163.435-23.465l-32.442,11.871l29.458,18.045c0.605,0.371,58.122,36.223,82.985,102.26
			l-1.751,1.751l83.528,83.528l6.872-6.873l0.545-0.267l6.248,6.25l-6.754,13.754l67.449,67.456l100.789-100.801L444.551,155.931z"
			/>
	</g>
</g>
</svg>