<?xml version="1.0" encoding="iso-8859-1"?>
<!-- Uploaded to: SVG Repo, www.svgrepo.com, Generator: SVG Repo Mixer Tools -->
<svg fill="currentColor" height="800px" width="800px" version="1.1" id="Layer_1" xmlns="http://www.w3.org/2000/svg" xmlns:xlink="http://www.w3.org/1999/xlink" 
	 viewBox="0 0 512 512" xml:space="preserve">
<g>
	<g>
		<path d="M16.696,55.652C7.479,55.652,0,63.131,0,72.348v150.261h75.818c-5.71-9.837-9.036-21.22-9.036-33.391
			c0-36.826,29.956-66.783,66.783-66.783c12.179,0,23.565,3.326,33.391,9.055V55.652H16.696z"/>
	</g>
</g>
<g>
	<g>
		<path d="M233.739,155.826c-18.413,0-33.391,14.978-33.391,33.391v16.696c0,5.718,0.581,11.299,1.682,16.696h31.709
			c18.413,0,33.391-14.978,33.391-33.391S252.152,155.826,233.739,155.826z"/>
	</g>
</g>
<g>
	<g>
		<path d="M133.565,155.826c-18.413,0-33.391,14.978-33.391,33.391s14.978,33.391,33.391,33.391h31.709
			c1.101-5.397,1.682-10.978,1.682-16.696v-16.696C166.957,170.804,151.978,155.826,133.565,155.826z"/>
	</g>
</g>
<g>
	<g>
		<path d="M495.304,55.652H200.348v75.837c9.826-5.728,21.212-9.055,33.391-9.055c36.826,0,66.783,29.956,66.783,66.783
			c0,12.171-3.326,23.554-9.036,33.391H512V72.348C512,63.131,504.521,55.652,495.304,55.652z"/>
	</g>
</g>
<g>
	<g>
		<path d="M83.478,322.783c-9.217,0-16.696-7.479-16.696-16.696c0-9.217,7.479-16.696,16.696-16.696
			c27.228,0,51.378-13.161,66.625-33.391h-16.538H0v183.652c0,9.217,7.479,16.696,16.696,16.696h150.261v-169.06
			C145.747,309.101,116.244,322.783,83.478,322.783z"/>
	</g>
</g>
<g>
	<g>
		<path d="M233.739,256h-16.538c15.248,20.231,39.397,33.391,66.625,33.391c9.217,0,16.696,7.479,16.696,16.696
			c0,9.217-7.479,16.696-16.696,16.696c-32.766,0-62.269-13.682-83.478-35.495v169.06h294.956c9.217,0,16.696-7.479,16.696-16.696
			V256H233.739z M428.522,389.565h-77.913c-9.217,0-16.696-7.479-16.696-16.696s7.479-16.696,16.696-16.696h77.913
			c9.217,0,16.696,7.479,16.696,16.696S437.739,389.565,428.522,389.565z M428.522,322.783h-77.913
			c-9.217,0-16.696-7.479-16.696-16.696c0-9.217,7.479-16.696,16.696-16.696h77.913c9.217,0,16.696,7.479,16.696,16.696
			C445.217,315.304,437.739,322.783,428.522,322.783z"/>
	</g>
</g>
</svg>