<?xml version="1.0" encoding="iso-8859-1"?>
<!-- Uploaded to: SVG Repo, www.svgrepo.com, Generator: SVG Repo Mixer Tools -->
<!DOCTYPE svg PUBLIC "-//W3C//DTD SVG 1.1//EN" "http://www.w3.org/Graphics/SVG/1.1/DTD/svg11.dtd">
<svg fill="currentColor" version="1.1" id="Capa_1" xmlns="http://www.w3.org/2000/svg" xmlns:xlink="http://www.w3.org/1999/xlink" 
	 width="800px" height="800px" viewBox="0 0 73.023 73.023"
	 xml:space="preserve">
<g>
	<g>
		<path d="M36.512,0c-14.56,0-26.208,11.648-26.208,26.208c0,14.56,26.208,46.815,26.208,46.815S62.72,40.768,62.72,26.208
			C62.72,11.872,51.073,0,36.512,0z M25.76,44.799h-4.928V25.312h4.928V44.799z M32.256,44.799h-4.704V30.688l2.464-2.912
			l2.464,2.912C32.256,30.688,32.256,44.799,32.256,44.799z M38.976,44.799h-4.928V19.04l4.928-2.911V44.799z M45.472,44.799h-4.928
			V21.952h4.928V44.799L45.472,44.799z M52.192,44.799h-4.929V28.224h2.017v-8.063c-0.225-0.225-0.447-0.448-0.447-0.672
			c0-0.449,0.225-0.672,0.672-0.672s0.672,0.223,0.672,0.672c0,0.224-0.225,0.447-0.447,0.672v8.063h2.465L52.192,44.799
			L52.192,44.799z"/>
	</g>
</g>
</svg>