<?xml version="1.0" encoding="iso-8859-1"?>
<!-- Uploaded to: SVG Repo, www.svgrepo.com, Generator: SVG Repo Mixer Tools -->
<svg fill="currentColor" height="800px" width="800px" version="1.1" id="Layer_1" xmlns="http://www.w3.org/2000/svg" xmlns:xlink="http://www.w3.org/1999/xlink" 
	 viewBox="0 0 512.001 512.001" xml:space="preserve">
<g>
	<g>
		<path d="M287.065,175.235v285.362c0,28.389,23.014,51.404,51.404,51.404h44.393c28.389,0,51.404-23.014,51.404-51.404V175.235
			H287.065z"/>
	</g>
</g>
<g>
	<g>
		<polygon points="168.032,206.374 168.032,171.091 184.727,171.091 184.727,137.7 168.032,137.7 168.032,129.75 203.79,129.75 
			203.79,96.358 168.032,96.358 168.032,88.408 203.79,88.408 203.79,55.017 168.032,55.017 168.032,47.066 184.727,47.066 
			184.727,13.675 168.032,13.675 168.032,0 134.64,0 134.64,13.675 117.945,13.675 117.945,47.066 134.64,47.066 134.64,55.017 
			98.882,55.017 98.882,88.408 134.64,88.408 134.64,96.358 98.882,96.358 98.882,129.75 134.64,129.75 134.64,137.7 117.945,137.7 
			117.945,171.091 134.64,171.091 134.64,206.374 96.145,206.374 96.145,243.698 206.526,243.698 206.526,206.374 		"/>
	</g>
</g>
<g>
	<g>
		<path d="M77.736,277.089v183.507c0,28.389,23.014,51.404,51.404,51.404h44.393c28.389,0,51.404-23.014,51.404-51.404V277.089
			H77.736z"/>
	</g>
</g>
</svg>